{
    "asset" : {
        "generator" : "Khronos glTF Blender I/O v1.6.16",
        "version" : "2.0"
    },
    "scene" : 0,
    "scenes" : [
        {
            "name" : "Scene",
            "nodes" : [
                0
            ]
        }
    ],
    "nodes" : [
        {
            "mesh" : 0,
            "name" : "Grid",
            "scale" : [
                124.79093933105469,
                124.79093933105469,
                124.79093933105469
            ]
        }
    ],
    "animations" : [
        {
            "channels" : [
                {
                    "sampler" : 0,
                    "target" : {
                        "node" : 0,
                        "path" : "translation"
                    }
                },
                {
                    "sampler" : 1,
                    "target" : {
                        "node" : 0,
                        "path" : "rotation"
                    }
                },
                {
                    "sampler" : 2,
                    "target" : {
                        "node" : 0,
                        "path" : "scale"
                    }
                }
            ],
            "name" : "Grid|Take 001|BaseLayer",
            "samplers" : [
                {
                    "input" : 12,
                    "interpolation" : "STEP",
                    "output" : 13
                },
                {
                    "input" : 12,
                    "interpolation" : "STEP",
                    "output" : 14
                },
                {
                    "input" : 12,
                    "interpolation" : "STEP",
                    "output" : 15
                }
            ]
        }
    ],
    "materials" : [
        {
            "doubleSided" : true,
            "name" : "Material #40",
            "pbrMetallicRoughness" : {
                "baseColorTexture" : {
                    "index" : 0
                },
                "roughnessFactor" : 0.858578622341156
            }
        },
        {
            "doubleSided" : true,
            "name" : "Material #28",
            "pbrMetallicRoughness" : {
                "baseColorTexture" : {
                    "index" : 1
                },
                "roughnessFactor" : 0.858578622341156
            }
        },
        {
            "doubleSided" : true,
            "name" : "Material #41",
            "pbrMetallicRoughness" : {
                "baseColorTexture" : {
                    "index" : 2
                },
                "roughnessFactor" : 0.858578622341156
            }
        }
    ],
    "meshes" : [
        {
            "name" : "Mesh",
            "primitives" : [
                {
                    "attributes" : {
                        "POSITION" : 0,
                        "NORMAL" : 1,
                        "TEXCOORD_0" : 2
                    },
                    "indices" : 3,
                    "material" : 0
                },
                {
                    "attributes" : {
                        "POSITION" : 4,
                        "NORMAL" : 5,
                        "TEXCOORD_0" : 6
                    },
                    "indices" : 7,
                    "material" : 1
                },
                {
                    "attributes" : {
                        "POSITION" : 8,
                        "NORMAL" : 9,
                        "TEXCOORD_0" : 10
                    },
                    "indices" : 11,
                    "material" : 2
                }
            ]
        }
    ],
    "textures" : [
        {
            "sampler" : 0,
            "source" : 0
        },
        {
            "sampler" : 0,
            "source" : 1
        },
        {
            "sampler" : 0,
            "source" : 2
        }
    ],
    "images" : [
        {
            "mimeType" : "image/jpeg",
            "name" : "desert",
            "uri" : "desert.jpg"
        },
        {
            "mimeType" : "image/jpeg",
            "name" : "Dessert_side",
            "uri" : "Dessert_side.jpg"
        },
        {
            "mimeType" : "image/jpeg",
            "name" : "desert_bottom",
            "uri" : "desert_bottom.jpg"
        }
    ],
    "accessors" : [
        {
            "bufferView" : 0,
            "componentType" : 5126,
            "count" : 17608,
            "max" : [
                1.0000255107879639,
                0.1291346400976181,
                1.0000728368759155
            ],
            "min" : [
                -1.000091552734375,
                -0.039154328405857086,
                -1.000099539756775
            ],
            "type" : "VEC3"
        },
        {
            "bufferView" : 1,
            "componentType" : 5126,
            "count" : 17608,
            "type" : "VEC3"
        },
        {
            "bufferView" : 2,
            "componentType" : 5126,
            "count" : 17608,
            "type" : "VEC2"
        },
        {
            "bufferView" : 3,
            "componentType" : 5123,
            "count" : 103971,
            "type" : "SCALAR"
        },
        {
            "bufferView" : 4,
            "componentType" : 5126,
            "count" : 1476,
            "max" : [
                1.000108003616333,
                0.12461979687213898,
                1.0000728368759155
            ],
            "min" : [
                -1.000091552734375,
                -0.17938700318336487,
                -1.0000998973846436
            ],
            "type" : "VEC3"
        },
        {
            "bufferView" : 5,
            "componentType" : 5126,
            "count" : 1476,
            "type" : "VEC3"
        },
        {
            "bufferView" : 6,
            "componentType" : 5126,
            "count" : 1476,
            "type" : "VEC2"
        },
        {
            "bufferView" : 7,
            "componentType" : 5123,
            "count" : 3342,
            "type" : "SCALAR"
        },
        {
            "bufferView" : 8,
            "componentType" : 5126,
            "count" : 803,
            "max" : [
                1.000108003616333,
                -0.16063269972801208,
                1.000072717666626
            ],
            "min" : [
                -1.000091314315796,
                -0.17938700318336487,
                -1.0000998973846436
            ],
            "type" : "VEC3"
        },
        {
            "bufferView" : 9,
            "componentType" : 5126,
            "count" : 803,
            "type" : "VEC3"
        },
        {
            "bufferView" : 10,
            "componentType" : 5126,
            "count" : 803,
            "type" : "VEC2"
        },
        {
            "bufferView" : 11,
            "componentType" : 5123,
            "count" : 1665,
            "type" : "SCALAR"
        },
        {
            "bufferView" : 12,
            "componentType" : 5126,
            "count" : 1,
            "max" : [
                0.033333336313565574
            ],
            "min" : [
                0.033333336313565574
            ],
            "type" : "SCALAR"
        },
        {
            "bufferView" : 13,
            "componentType" : 5126,
            "count" : 1,
            "type" : "VEC3"
        },
        {
            "bufferView" : 14,
            "componentType" : 5126,
            "count" : 1,
            "type" : "VEC4"
        },
        {
            "bufferView" : 15,
            "componentType" : 5126,
            "count" : 1,
            "type" : "VEC3"
        }
    ],
    "bufferViews" : [
        {
            "buffer" : 0,
            "byteLength" : 211296,
            "byteOffset" : 0
        },
        {
            "buffer" : 0,
            "byteLength" : 211296,
            "byteOffset" : 211296
        },
        {
            "buffer" : 0,
            "byteLength" : 140864,
            "byteOffset" : 422592
        },
        {
            "buffer" : 0,
            "byteLength" : 207942,
            "byteOffset" : 563456
        },
        {
            "buffer" : 0,
            "byteLength" : 17712,
            "byteOffset" : 771400
        },
        {
            "buffer" : 0,
            "byteLength" : 17712,
            "byteOffset" : 789112
        },
        {
            "buffer" : 0,
            "byteLength" : 11808,
            "byteOffset" : 806824
        },
        {
            "buffer" : 0,
            "byteLength" : 6684,
            "byteOffset" : 818632
        },
        {
            "buffer" : 0,
            "byteLength" : 9636,
            "byteOffset" : 825316
        },
        {
            "buffer" : 0,
            "byteLength" : 9636,
            "byteOffset" : 834952
        },
        {
            "buffer" : 0,
            "byteLength" : 6424,
            "byteOffset" : 844588
        },
        {
            "buffer" : 0,
            "byteLength" : 3330,
            "byteOffset" : 851012
        },
        {
            "buffer" : 0,
            "byteLength" : 4,
            "byteOffset" : 854344
        },
        {
            "buffer" : 0,
            "byteLength" : 12,
            "byteOffset" : 854348
        },
        {
            "buffer" : 0,
            "byteLength" : 16,
            "byteOffset" : 854360
        },
        {
            "buffer" : 0,
            "byteLength" : 12,
            "byteOffset" : 854376
        }
    ],
    "samplers" : [
        {
            "magFilter" : 9729,
            "minFilter" : 9987
        }
    ],
    "buffers" : [
        {
            "byteLength" : 854388,
            "uri" : "desert.bin"
        }
    ]
}
